<?xml version="1.0" encoding="UTF-8"?>
<svg width="64" height="64" viewBox="0 0 64 64" xmlns="http://www.w3.org/2000/svg">
  <!-- Hell Gate Pixel Art -->
  
  <!-- Fire background -->
  <rect x="0" y="0" width="64" height="64" fill="#8b0000"/>
  
  <!-- Flame layers -->
  <rect x="8" y="8" width="48" height="8" fill="#e74c3c"/>
  <rect x="12" y="16" width="40" height="8" fill="#ff4500"/>
  <rect x="16" y="24" width="32" height="4" fill="#ff6b5b"/>
  
  <!-- Gate structure -->
  <rect x="20" y="28" width="24" height="28" fill="#a82315"/>
  
  <!-- Gate opening -->
  <rect x="24" y="32" width="16" height="20" fill="#111111"/>
  
  <!-- Gate details (bones) -->
  <rect x="20" y="28" width="24" height="4" fill="#eeeeee"/>
  <rect x="20" y="32" width="4" height="24" fill="#eeeeee"/>
  <rect x="40" y="32" width="4" height="24" fill="#eeeeee"/>
  
  <!-- Flames at the bottom -->
  <rect x="16" y="56" width="4" height="4" fill="#ff4500"/>
  <rect x="24" y="56" width="4" height="4" fill="#ff4500"/>
  <rect x="32" y="56" width="4" height="4" fill="#ff4500"/>
  <rect x="40" y="56" width="4" height="4" fill="#ff4500"/>
  <rect x="20" y="60" width="4" height="4" fill="#ff4500"/>
  <rect x="28" y="60" width="4" height="4" fill="#ff4500"/>
  <rect x="36" y="60" width="4" height="4" fill="#ff4500"/>
</svg>
