<?xml version="1.0" encoding="UTF-8"?>
<svg width="64" height="64" viewBox="0 0 64 64" xmlns="http://www.w3.org/2000/svg">
  <!-- Redemption/Back to Life Portal Pixel Art -->
  
  <!-- Portal background -->
  <rect x="0" y="0" width="64" height="64" fill="#6d3d88"/>
  
  <!-- Swirling effect -->
  <rect x="12" y="12" width="40" height="40" fill="#9b59b6"/>
  <rect x="16" y="16" width="32" height="32" fill="#8e44ad"/>
  <rect x="20" y="20" width="24" height="24" fill="#9b59b6"/>
  <rect x="24" y="24" width="16" height="16" fill="#c27dde"/>
  
  <!-- Portal energy -->
  <rect x="28" y="4" width="8" height="8" fill="#c27dde"/>
  <rect x="28" y="52" width="8" height="8" fill="#c27dde"/>
  <rect x="4" y="28" width="8" height="8" fill="#c27dde"/>
  <rect x="52" y="28" width="8" height="8" fill="#c27dde"/>
  
  <!-- Life symbols -->
  <rect x="28" y="16" width="8" height="4" fill="#ffffff"/>
  <rect x="28" y="20" width="8" height="4" fill="#ffffff"/>
  <rect x="28" y="24" width="8" height="16" fill="#ffffff"/>
  
  <!-- Heart beat line -->
  <rect x="16" y="32" width="8" height="2" fill="#ffffff"/>
  <rect x="24" y="28" width="4" height="2" fill="#ffffff"/>
  <rect x="28" y="32" width="4" height="2" fill="#ffffff"/>
  <rect x="32" y="28" width="4" height="2" fill="#ffffff"/>
  <rect x="36" y="32" width="8" height="2" fill="#ffffff"/>
</svg>
