<?xml version="1.0" encoding="UTF-8"?>
<svg width="32" height="32" viewBox="0 0 32 32" xmlns="http://www.w3.org/2000/svg">
  <!-- Pixel Scale -->
  <rect x="0" y="0" width="32" height="32" fill="#111111"/>
  <rect x="2" y="2" width="4" height="4" fill="#d4af37"/>
  <rect x="6" y="2" width="4" height="4" fill="#d4af37"/>
  <rect x="10" y="2" width="4" height="4" fill="#d4af37"/>
  
  <rect x="2" y="6" width="4" height="4" fill="#d4af37"/>
  <rect x="10" y="6" width="4" height="4" fill="#d4af37"/>
  
  <rect x="2" y="10" width="4" height="4" fill="#d4af37"/>
  <rect x="6" y="10" width="4" height="4" fill="#d4af37"/>
  <rect x="10" y="10" width="4" height="4" fill="#d4af37"/>
  
  <rect x="18" y="2" width="4" height="4" fill="#d4af37"/>
  <rect x="22" y="6" width="4" height="4" fill="#d4af37"/>
  <rect x="26" y="10" width="4" height="4" fill="#d4af37"/>
  
  <rect x="18" y="10" width="4" height="4" fill="#d4af37"/>
  <rect x="22" y="10" width="4" height="4" fill="#d4af37"/>
  
  <rect x="2" y="18" width="28" height="2" fill="#d4af37"/>
  
  <rect x="8" y="22" width="16" height="8" fill="#111111"/>
  <rect x="8" y="22" width="16" height="2" fill="#d4af37"/>
</svg>
